<svg xmlns="http://www.w3.org/2000/svg" width="980" height="430" viewBox="0 0 980 430" role="img" aria-labelledby="title desc">
  <title id="title">Internal milestone benchmark comparison</title>
  <desc id="desc">Comparison of pre-7d12617 and 7d12617 FluxSort benchmark times on duplicate-heavy and random datasets, using one shared linear scale. Lower is better.</desc>
  <rect width="980" height="430" fill="#f7f3ea"/>

  <text x="40" y="40" font-family="Georgia, serif" font-size="24" fill="#1f2a1f">Internal Progress To 7d12617</text>
  <text x="40" y="66" font-family="Verdana, sans-serif" font-size="13" fill="#4a564a">Focused local runs on the same toolchain. One shared scale across all bars; lower is better.</text>

  <g font-family="Verdana, sans-serif" font-size="12" fill="#233223">
    <text x="230" y="96">0 ns</text>
    <text x="625" y="96">2.2 ms</text>
    <text x="102" y="130">duplicate_heavy 1024</text>
    <rect x="230" y="114" width="37" height="18" fill="#8f9f7b"/>
    <text x="277" y="128">46f9743 387734 ns</text>
    <rect x="230" y="136" width="34" height="18" fill="#b9a46a"/>
    <text x="274" y="150">7d12617 360123 ns</text>

    <text x="102" y="194">duplicate_heavy 4096</text>
    <rect x="230" y="178" width="345" height="18" fill="#8f9f7b"/>
    <text x="585" y="192">46f9743 3610599 ns</text>
    <rect x="230" y="200" width="333" height="18" fill="#b9a46a"/>
    <text x="573" y="214">7d12617 3481692 ns</text>

    <text x="102" y="258">random 1024</text>
    <rect x="230" y="242" width="56" height="18" fill="#8f9f7b"/>
    <text x="296" y="256">46f9743 586323 ns</text>
    <rect x="230" y="264" width="58" height="18" fill="#b9a46a"/>
    <text x="298" y="278">7d12617 604275 ns</text>

    <text x="102" y="322">random 4096</text>
    <rect x="230" y="306" width="420" height="18" fill="#8f9f7b"/>
    <text x="660" y="320">46f9743 4399906 ns</text>
    <rect x="230" y="328" width="415" height="18" fill="#b9a46a"/>
    <text x="655" y="342">7d12617 4352358 ns</text>
  </g>

  <g font-family="Verdana, sans-serif" font-size="12" fill="#233223">
    <rect x="760" y="114" width="18" height="18" fill="#8f9f7b"/>
    <text x="788" y="128">46f9743</text>
    <rect x="760" y="142" width="18" height="18" fill="#b9a46a"/>
    <text x="788" y="156">7d12617</text>
  </g>

  <text x="40" y="394" font-family="Verdana, sans-serif" font-size="12" fill="#5b665b">Takeaway: the grouped-window pressure milestone clearly helped duplicate-heavy inputs, while broad random-case performance stayed roughly flat.</text>
</svg>
