<svg xmlns="http://www.w3.org/2000/svg" width="980" height="430" viewBox="0 0 980 430" role="img" aria-labelledby="title desc">
  <title id="title">Internal milestone benchmark comparison</title>
  <desc id="desc">Comparison of the pre-grouped-window baseline and the stable grouped-window milestone on duplicate-heavy and random datasets, using one shared linear scale. Lower is better.</desc>
  <rect width="980" height="430" fill="#f7f3ea"/>

  <text x="40" y="40" font-family="Georgia, serif" font-size="24" fill="#1f2a1f">Internal Progress To The Grouped-Window Milestone</text>
  <text x="40" y="66" font-family="Verdana, sans-serif" font-size="13" fill="#4a564a">Focused local runs on the same toolchain. One shared scale across all bars; lower is better.</text>

  <g font-family="Verdana, sans-serif" font-size="12" fill="#233223">
    <line x1="230" y1="90" x2="650" y2="90" stroke="#94a094" stroke-width="1"/>
    <text x="230" y="82">0 ns</text>
    <text x="620" y="82">4.4 ms</text>
  </g>

  <g font-family="Verdana, sans-serif" font-size="12" fill="#233223">
    <text x="90" y="130">duplicate_heavy 1024</text>
    <rect x="230" y="114" width="37" height="18" fill="#8f9f7b"/>
    <text x="277" y="128">pre-grouped baseline 387734 ns</text>
    <rect x="230" y="136" width="34" height="18" fill="#b9a46a"/>
    <text x="274" y="150">stable milestone 360123 ns</text>

    <text x="90" y="194">duplicate_heavy 4096</text>
    <rect x="230" y="178" width="345" height="18" fill="#8f9f7b"/>
    <text x="585" y="192">pre-grouped baseline 3610599 ns</text>
    <rect x="230" y="200" width="333" height="18" fill="#b9a46a"/>
    <text x="573" y="214">stable milestone 3481692 ns</text>

    <text x="90" y="258">random 1024</text>
    <rect x="230" y="242" width="56" height="18" fill="#8f9f7b"/>
    <text x="296" y="256">pre-grouped baseline 586323 ns</text>
    <rect x="230" y="264" width="58" height="18" fill="#b9a46a"/>
    <text x="298" y="278">stable milestone 604275 ns</text>

    <text x="90" y="322">random 4096</text>
    <rect x="230" y="306" width="420" height="18" fill="#8f9f7b"/>
    <text x="660" y="320">pre-grouped baseline 4399906 ns</text>
    <rect x="230" y="328" width="415" height="18" fill="#b9a46a"/>
    <text x="655" y="342">stable milestone 4352358 ns</text>
  </g>

  <g font-family="Verdana, sans-serif" font-size="12" fill="#233223">
    <rect x="735" y="114" width="18" height="18" fill="#8f9f7b"/>
    <text x="763" y="128">pre-grouped baseline</text>
    <rect x="735" y="142" width="18" height="18" fill="#b9a46a"/>
    <text x="763" y="156">stable milestone</text>
  </g>

  <text x="40" y="394" font-family="Verdana, sans-serif" font-size="12" fill="#5b665b">Takeaway: the grouped-window pressure milestone clearly helped duplicate-heavy inputs, while broad random-case performance stayed roughly flat.</text>
</svg>
